<mxfile host="65bd71144e" modified="2021-11-08T02:55:16.189Z" agent="5.0 (Windows NT 10.0; Win64; x64) AppleWebKit/537.36 (KHTML, like Gecko) Code/1.62.0 Chrome/91.0.4472.164 Electron/13.5.1 Safari/537.36" etag="eMEjPWOSi9tCEKx0ENX1" version="15.7.0" type="embed">
    <diagram id="zbQ0ZNbQQE8SJt1AS_Jz" name="S06-01 ユーザ権限編集">
        <mxGraphModel dx="747" dy="437" grid="1" gridSize="10" guides="1" tooltips="1" connect="1" arrows="1" fold="1" page="1" pageScale="1" pageWidth="827" pageHeight="1169" math="0" shadow="0">
            <root>
                <mxCell id="0"/>
                <mxCell id="1" style="" parent="0"/>
                <mxCell id="36" value="" style="rounded=0;whiteSpace=wrap;html=1;" parent="1" vertex="1">
                    <mxGeometry x="50" y="50" width="600" height="360" as="geometry"/>
                </mxCell>
                <mxCell id="37" value="ユーザ権限編集画面" style="text;html=1;strokeColor=none;fillColor=none;align=center;verticalAlign=middle;whiteSpace=wrap;rounded=0;fontColor=default;fontStyle=1;fontSize=20;" parent="1" vertex="1">
                    <mxGeometry x="252.5" y="60" width="195" height="50" as="geometry"/>
                </mxCell>
                <mxCell id="38" value="" style="shape=table;startSize=0;container=1;collapsible=0;childLayout=tableLayout;" parent="1" vertex="1">
                    <mxGeometry x="135" y="130" width="455" height="200" as="geometry"/>
                </mxCell>
                <mxCell id="39" value="" style="shape=partialRectangle;collapsible=0;dropTarget=0;pointerEvents=0;fillColor=none;top=0;left=0;bottom=0;right=0;points=[[0,0.5],[1,0.5]];portConstraint=eastwest;" parent="38" vertex="1">
                    <mxGeometry width="455" height="40" as="geometry"/>
                </mxCell>
                <mxCell id="40" value="従業員ID" style="shape=partialRectangle;html=1;whiteSpace=wrap;connectable=0;overflow=hidden;fillColor=#b0e3e6;top=0;left=0;bottom=0;right=0;pointerEvents=1;strokeColor=#0e8088;" parent="39" vertex="1">
                    <mxGeometry width="143" height="40" as="geometry">
                        <mxRectangle width="143" height="40" as="alternateBounds"/>
                    </mxGeometry>
                </mxCell>
                <mxCell id="41" value="従業員名" style="shape=partialRectangle;html=1;whiteSpace=wrap;connectable=0;overflow=hidden;fillColor=#b0e3e6;top=0;left=0;bottom=0;right=0;pointerEvents=1;strokeColor=#0e8088;" parent="39" vertex="1">
                    <mxGeometry x="143" width="144" height="40" as="geometry">
                        <mxRectangle width="144" height="40" as="alternateBounds"/>
                    </mxGeometry>
                </mxCell>
                <mxCell id="42" value="雇用形態" style="shape=partialRectangle;html=1;whiteSpace=wrap;connectable=0;overflow=hidden;fillColor=#b0e3e6;top=0;left=0;bottom=0;right=0;pointerEvents=1;strokeColor=#0e8088;" parent="39" vertex="1">
                    <mxGeometry x="287" width="168" height="40" as="geometry">
                        <mxRectangle width="168" height="40" as="alternateBounds"/>
                    </mxGeometry>
                </mxCell>
                <mxCell id="43" value="" style="shape=partialRectangle;collapsible=0;dropTarget=0;pointerEvents=0;fillColor=none;top=0;left=0;bottom=0;right=0;points=[[0,0.5],[1,0.5]];portConstraint=eastwest;" parent="38" vertex="1">
                    <mxGeometry y="40" width="455" height="40" as="geometry"/>
                </mxCell>
                <mxCell id="44" value="0987654321098" style="shape=partialRectangle;html=1;whiteSpace=wrap;connectable=0;overflow=hidden;fillColor=none;top=0;left=0;bottom=0;right=0;pointerEvents=1;" parent="43" vertex="1">
                    <mxGeometry width="143" height="40" as="geometry">
                        <mxRectangle width="143" height="40" as="alternateBounds"/>
                    </mxGeometry>
                </mxCell>
                <mxCell id="45" value="織田信長" style="shape=partialRectangle;html=1;whiteSpace=wrap;connectable=0;overflow=hidden;fillColor=none;top=0;left=0;bottom=0;right=0;pointerEvents=1;" parent="43" vertex="1">
                    <mxGeometry x="143" width="144" height="40" as="geometry">
                        <mxRectangle width="144" height="40" as="alternateBounds"/>
                    </mxGeometry>
                </mxCell>
                <mxCell id="46" value="" style="shape=partialRectangle;html=1;whiteSpace=wrap;connectable=0;overflow=hidden;fillColor=none;top=0;left=0;bottom=0;right=0;pointerEvents=1;" parent="43" vertex="1">
                    <mxGeometry x="287" width="168" height="40" as="geometry">
                        <mxRectangle width="168" height="40" as="alternateBounds"/>
                    </mxGeometry>
                </mxCell>
                <mxCell id="47" value="" style="shape=partialRectangle;collapsible=0;dropTarget=0;pointerEvents=0;fillColor=none;top=0;left=0;bottom=0;right=0;points=[[0,0.5],[1,0.5]];portConstraint=eastwest;" parent="38" vertex="1">
                    <mxGeometry y="80" width="455" height="40" as="geometry"/>
                </mxCell>
                <mxCell id="48" value="9582842825766" style="shape=partialRectangle;html=1;whiteSpace=wrap;connectable=0;overflow=hidden;fillColor=none;top=0;left=0;bottom=0;right=0;pointerEvents=1;" parent="47" vertex="1">
                    <mxGeometry width="143" height="40" as="geometry">
                        <mxRectangle width="143" height="40" as="alternateBounds"/>
                    </mxGeometry>
                </mxCell>
                <mxCell id="49" value="豊臣秀吉" style="shape=partialRectangle;html=1;whiteSpace=wrap;connectable=0;overflow=hidden;fillColor=none;top=0;left=0;bottom=0;right=0;pointerEvents=1;" parent="47" vertex="1">
                    <mxGeometry x="143" width="144" height="40" as="geometry">
                        <mxRectangle width="144" height="40" as="alternateBounds"/>
                    </mxGeometry>
                </mxCell>
                <mxCell id="50" value="" style="shape=partialRectangle;html=1;whiteSpace=wrap;connectable=0;overflow=hidden;fillColor=none;top=0;left=0;bottom=0;right=0;pointerEvents=1;" parent="47" vertex="1">
                    <mxGeometry x="287" width="168" height="40" as="geometry">
                        <mxRectangle width="168" height="40" as="alternateBounds"/>
                    </mxGeometry>
                </mxCell>
                <mxCell id="51" value="" style="shape=partialRectangle;collapsible=0;dropTarget=0;pointerEvents=0;fillColor=none;top=0;left=0;bottom=0;right=0;points=[[0,0.5],[1,0.5]];portConstraint=eastwest;" parent="38" vertex="1">
                    <mxGeometry y="120" width="455" height="40" as="geometry"/>
                </mxCell>
                <mxCell id="52" value="4381797571975" style="shape=partialRectangle;html=1;whiteSpace=wrap;connectable=0;overflow=hidden;fillColor=none;top=0;left=0;bottom=0;right=0;pointerEvents=1;" parent="51" vertex="1">
                    <mxGeometry width="143" height="40" as="geometry">
                        <mxRectangle width="143" height="40" as="alternateBounds"/>
                    </mxGeometry>
                </mxCell>
                <mxCell id="53" value="武田信玄" style="shape=partialRectangle;html=1;whiteSpace=wrap;connectable=0;overflow=hidden;fillColor=none;top=0;left=0;bottom=0;right=0;pointerEvents=1;" parent="51" vertex="1">
                    <mxGeometry x="143" width="144" height="40" as="geometry">
                        <mxRectangle width="144" height="40" as="alternateBounds"/>
                    </mxGeometry>
                </mxCell>
                <mxCell id="54" value="" style="shape=partialRectangle;html=1;whiteSpace=wrap;connectable=0;overflow=hidden;fillColor=none;top=0;left=0;bottom=0;right=0;pointerEvents=1;" parent="51" vertex="1">
                    <mxGeometry x="287" width="168" height="40" as="geometry">
                        <mxRectangle width="168" height="40" as="alternateBounds"/>
                    </mxGeometry>
                </mxCell>
                <mxCell id="55" value="" style="shape=partialRectangle;collapsible=0;dropTarget=0;pointerEvents=0;fillColor=none;top=0;left=0;bottom=0;right=0;points=[[0,0.5],[1,0.5]];portConstraint=eastwest;" parent="38" vertex="1">
                    <mxGeometry y="160" width="455" height="40" as="geometry"/>
                </mxCell>
                <mxCell id="56" value="8471075439184" style="shape=partialRectangle;html=1;whiteSpace=wrap;connectable=0;overflow=hidden;fillColor=none;top=0;left=0;bottom=0;right=0;pointerEvents=1;" parent="55" vertex="1">
                    <mxGeometry width="143" height="40" as="geometry">
                        <mxRectangle width="143" height="40" as="alternateBounds"/>
                    </mxGeometry>
                </mxCell>
                <mxCell id="57" value="徳川家康" style="shape=partialRectangle;html=1;whiteSpace=wrap;connectable=0;overflow=hidden;fillColor=none;top=0;left=0;bottom=0;right=0;pointerEvents=1;" parent="55" vertex="1">
                    <mxGeometry x="143" width="144" height="40" as="geometry">
                        <mxRectangle width="144" height="40" as="alternateBounds"/>
                    </mxGeometry>
                </mxCell>
                <mxCell id="58" value="" style="shape=partialRectangle;html=1;whiteSpace=wrap;connectable=0;overflow=hidden;fillColor=none;top=0;left=0;bottom=0;right=0;pointerEvents=1;" parent="55" vertex="1">
                    <mxGeometry x="287" width="168" height="40" as="geometry">
                        <mxRectangle width="168" height="40" as="alternateBounds"/>
                    </mxGeometry>
                </mxCell>
                <mxCell id="59" value="&lt;span style=&quot;font-size: 19px&quot;&gt;保存&lt;/span&gt;" style="rounded=1;whiteSpace=wrap;html=1;align=center;labelBackgroundColor=none;fillColor=#d5e8d4;strokeColor=#82b366;" parent="1" vertex="1">
                    <mxGeometry x="285" y="350" width="130" height="34" as="geometry"/>
                </mxCell>
                <mxCell id="60" value="管理者" style="rounded=1;arcSize=9;fillColor=#ffffff;strokeColor=#4C9AFF;html=1;strokeWidth=2;spacingLeft=30;fontColor=#000000;align=left" parent="1" vertex="1">
                    <mxGeometry x="424" y="170" width="166" height="33" as="geometry"/>
                </mxCell>
                <mxCell id="61" value="" style="shape=step;whiteSpace=wrap;html=1;rounded=0;strokeColor=none;strokeWidth=2;fillColor=#0A1E43;gradientColor=none;fontFamily=Verdana;fontSize=14;fontColor=#000000;align=left;direction=south;size=0.65;" parent="60" vertex="1">
                    <mxGeometry x="1" y="0.5" width="10" height="7" relative="1" as="geometry">
                        <mxPoint x="-24" y="-3" as="offset"/>
                    </mxGeometry>
                </mxCell>
                <mxCell id="62" value="正規社員" style="rounded=1;arcSize=9;fillColor=#ffffff;strokeColor=#4C9AFF;html=1;strokeWidth=2;spacingLeft=30;fontColor=#000000;align=left" parent="1" vertex="1">
                    <mxGeometry x="424" y="213.5" width="166" height="33" as="geometry"/>
                </mxCell>
                <mxCell id="63" value="" style="shape=step;whiteSpace=wrap;html=1;rounded=0;strokeColor=none;strokeWidth=2;fillColor=#0A1E43;gradientColor=none;fontFamily=Verdana;fontSize=14;fontColor=#000000;align=left;direction=south;size=0.65;" parent="62" vertex="1">
                    <mxGeometry x="1" y="0.5" width="10" height="7" relative="1" as="geometry">
                        <mxPoint x="-24" y="-3" as="offset"/>
                    </mxGeometry>
                </mxCell>
                <mxCell id="64" value="非正規社員" style="rounded=1;arcSize=9;fillColor=#ffffff;strokeColor=#4C9AFF;html=1;strokeWidth=2;spacingLeft=30;fontColor=#000000;align=left" parent="1" vertex="1">
                    <mxGeometry x="424" y="250" width="166" height="33" as="geometry"/>
                </mxCell>
                <mxCell id="65" value="" style="shape=step;whiteSpace=wrap;html=1;rounded=0;strokeColor=none;strokeWidth=2;fillColor=#0A1E43;gradientColor=none;fontFamily=Verdana;fontSize=14;fontColor=#000000;align=left;direction=south;size=0.65;" parent="64" vertex="1">
                    <mxGeometry x="1" y="0.5" width="10" height="7" relative="1" as="geometry">
                        <mxPoint x="-24" y="-3" as="offset"/>
                    </mxGeometry>
                </mxCell>
                <mxCell id="66" value="非正規社員" style="rounded=1;arcSize=9;fillColor=#ffffff;strokeColor=#4C9AFF;html=1;strokeWidth=2;spacingLeft=30;fontColor=#000000;align=left" parent="1" vertex="1">
                    <mxGeometry x="424" y="290" width="166" height="33" as="geometry"/>
                </mxCell>
                <mxCell id="67" value="" style="shape=step;whiteSpace=wrap;html=1;rounded=0;strokeColor=none;strokeWidth=2;fillColor=#0A1E43;gradientColor=none;fontFamily=Verdana;fontSize=14;fontColor=#000000;align=left;direction=south;size=0.65;" parent="66" vertex="1">
                    <mxGeometry x="1" y="0.5" width="10" height="7" relative="1" as="geometry">
                        <mxPoint x="-24" y="-3" as="offset"/>
                    </mxGeometry>
                </mxCell>
                <mxCell id="2" value="名称未設定レイヤ" parent="0"/>
                <mxCell id="3" value="名称未設定レイヤ" parent="0"/>
            </root>
        </mxGraphModel>
    </diagram>
</mxfile>